<svg id="Layer_1" viewBox="0 0 512 512" xmlns="http://www.w3.org/2000/svg" data-name="Layer 1"><path d="m256 4.054c-138.767 0-251.946 113.179-251.946 251.946s113.179 251.946 251.946 251.946 251.946-113.179 251.946-251.946-113.179-251.946-251.946-251.946zm-100.459 357.577c0 7.273-5.932 13.207-13.211 13.207h-25.491c-7.279 0-13.211-5.934-13.211-13.207v-25.51c0-7.272 5.932-13.205 13.211-13.205h25.491c7.279 0 13.211 5.933 13.211 13.205zm0-92.879c0 7.273-5.932 13.205-13.211 13.205h-25.491c-7.279 0-13.211-5.932-13.211-13.205v-25.504c0-7.274 5.932-13.206 13.211-13.206h25.491c7.279 0 13.211 5.932 13.211 13.206zm0-92.873c0 7.274-5.932 13.199-13.211 13.199h-25.491c-7.279 0-13.211-5.925-13.211-13.199v-25.51c0-7.273 5.932-13.206 13.211-13.206h25.491c7.279 0 13.211 5.932 13.211 13.206zm252.832 185.752c0 7.273-5.932 13.207-13.211 13.207h-185.464c-7.247 0-13.179-5.934-13.179-13.207v-25.51c0-7.272 5.932-13.198 13.179-13.198h185.463c7.279 0 13.211 5.926 13.211 13.198v25.51zm0-92.879c0 7.273-5.932 13.205-13.211 13.205h-185.464c-7.247 0-13.179-5.932-13.179-13.205v-25.504c0-7.274 5.932-13.206 13.179-13.206h185.463c7.279 0 13.211 5.932 13.211 13.206v25.504zm0-92.873c0 7.274-5.932 13.205-13.211 13.205h-185.464c-7.247 0-13.179-5.932-13.179-13.205v-25.51c0-7.273 5.932-13.206 13.179-13.206h185.463c7.279 0 13.211 5.932 13.211 13.206v25.51z" fill-rule="evenodd"/></svg>