<svg id="Layer_1" viewBox="0 0 512 512" xmlns="http://www.w3.org/2000/svg" data-name="Layer 1"><path d="m115.678 303.259h71.676v-94.517h-71.676c-5.731 0-10.42 4.689-10.42 10.42v73.677c0 5.731 4.689 10.42 10.42 10.42zm248.954-119.45c-2.757-3.186-2.409-8.003.777-10.76s8.004-2.409 10.76.777c20.381 23.628 30.572 52.911 30.572 82.174s-10.191 58.546-30.572 82.174c-2.757 3.186-7.575 3.534-10.76.777-3.186-2.757-3.534-7.574-.777-10.76 17.87-20.718 26.806-46.445 26.806-72.191s-8.936-51.474-26.806-72.191zm-22.986 29.924c10.455 12.121 15.683 27.185 15.683 42.267s-5.228 30.146-15.683 42.267c-2.757 3.186-2.409 8.004.777 10.76 3.186 2.757 8.003 2.409 10.76-.777 12.966-15.031 19.449-33.65 19.449-52.25s-6.483-37.219-19.449-52.251c-2.757-3.186-7.575-3.534-10.76-.777-3.186 2.757-3.534 7.574-.777 10.76zm-138.988-12.738c36.491-19.604 66.224-44.122 89.195-73.556 2.105-2.697 5.488-3.756 8.755-2.74s5.453 3.806 5.657 7.221v248.162c-.204 3.415-2.39 6.205-5.657 7.221s-6.65-.043-8.755-2.74c-22.971-29.434-52.704-53.952-89.195-73.556v-110.011zm53.342-200.495c141.109 0 255.5 114.391 255.5 255.5s-114.391 255.5-255.5 255.5-255.5-114.391-255.5-255.5 114.391-255.5 255.5-255.5z" fill-rule="evenodd"/></svg>