<svg height="512" viewBox="0 0 32 32" width="512" xmlns="http://www.w3.org/2000/svg"><g id="star"><rect fill="#f1c40f" height="29" rx="2.74" width="29" x="1.5" y="1.5"/><path d="m16 8.211 1.921 5.3a.5.5 0 0 0 .453.329l5.634.19-4.447 3.465a.5.5 0 0 0 -.173.533l1.561 5.417-4.669-3.16a.5.5 0 0 0 -.56 0l-4.67 3.159 1.561-5.417a.5.5 0 0 0 -.173-.533l-4.446-3.465 5.634-.19a.5.5 0 0 0 .453-.329zm-.9-.448-1.845 5.088-5.409.182a.959.959 0 0 0 -.557 1.715l4.269 3.327-1.5 5.2a.959.959 0 0 0 1.459 1.059l4.483-3.034 4.483 3.032a.959.959 0 0 0 1.459-1.059l-1.5-5.2 4.269-3.327a.959.959 0 0 0 -.557-1.715l-5.409-.182-1.845-5.086a.959.959 0 0 0 -1.8 0z" fill="#fff" fill-rule="evenodd"/></g></svg>