<?xml version="1.0" encoding="iso-8859-1"?>
<!-- Generator: Adobe Illustrator 18.1.1, SVG Export Plug-In . SVG Version: 6.00 Build 0)  -->
<svg version="1.1" id="Capa_1" xmlns="http://www.w3.org/2000/svg" xmlns:xlink="http://www.w3.org/1999/xlink" x="0px" y="0px"
	 viewBox="0 0 611.998 611.998" style="enable-background:new 0 0 611.998 611.998;" xml:space="preserve">
<g>
	<g>
		<path d="M292.221,130.235c-4.123-2.708-9.331-3.159-13.866-1.192L99.1,206.718c-0.966-4.372-4.866-7.645-9.523-7.645H9.77
			c-5.399,0-9.77,4.372-9.77,9.767v194.32c0,5.392,4.372,9.762,9.77,9.762h79.806c4.656,0,8.558-3.268,9.523-7.64l179.255,77.675
			c1.864,0.809,3.847,1.206,5.825,1.206c2.811,0,5.612-0.812,8.041-2.4c4.12-2.708,6.605-7.309,6.605-12.243V142.481
			C298.826,137.544,296.341,132.943,292.221,130.235z"/>
		<path d="M402.046,159.068c-13.605-9.048-31.971-5.358-41.02,8.251c-9.05,13.605-5.355,31.971,8.251,41.02
			c32.813,21.825,52.404,58.334,52.404,97.662c0,39.33-19.591,75.838-52.404,97.664c-13.605,9.05-17.3,27.415-8.251,41.02
			c5.697,8.569,15.089,13.204,24.662,13.204c5.63,0,11.322-1.603,16.358-4.954c49.348-32.82,78.806-87.749,78.806-146.934
			C480.852,246.817,451.392,191.888,402.046,159.068z"/>
		<path d="M495.243,88.326c-13.605-9.05-31.971-5.357-41.02,8.249c-9.05,13.606-5.355,31.971,8.251,41.02
			c56.577,37.63,90.353,100.584,90.353,168.404c0,67.823-33.778,130.777-90.353,168.405c-13.605,9.05-17.299,27.415-8.251,41.02
			c5.699,8.569,15.089,13.204,24.662,13.204c5.63,0,11.322-1.603,16.358-4.954c73.108-48.624,116.755-129.996,116.755-217.676
			C612,218.325,568.354,136.952,495.243,88.326z"/>
	</g>
</g>
<g>
</g>
<g>
</g>
<g>
</g>
<g>
</g>
<g>
</g>
<g>
</g>
<g>
</g>
<g>
</g>
<g>
</g>
<g>
</g>
<g>
</g>
<g>
</g>
<g>
</g>
<g>
</g>
<g>
</g>
</svg>
