<svg id="&#x421;&#x43B;&#x43E;&#x439;_1" enable-background="new 0 0 300 300" viewBox="0 0 300 300" xmlns="http://www.w3.org/2000/svg"><g fill="#333"><path d="m100.756 160.545c1.993 2.518 3.936 5.309 5.94 8.533.228.366.469.761.723 1.181 5.55 9.187 9.326 19.729 11.222 31.332 1.717 10.506 5.288 15.999 7.881 18.721-.067.197-.111.405-.111.624v15.176 9.598c0 4.224 3.436 7.66 7.659 7.66h3.933v1.737c0 4.611 2.771 7.956 6.589 7.956h10.814c3.818 0 6.589-3.346 6.589-7.956v-1.737h5.403c3.413 0 6.189-2.776 6.189-6.189v-11.068-15.176c0-.219-.044-.425-.11-.622 2.751-2.89 6.604-8.908 8.177-20.727 1.247-9.373 4.145-17.957 8.613-25.516.465-.788.916-1.541 1.347-2.249 2.541-4.175 5.514-8.108 8.1-11.466 8.941-11.608 13.615-26.245 13.157-41.215-.514-16.82-7.664-32.485-20.133-44.111-12.44-11.6-28.527-17.609-45.248-16.965-33.865 1.334-60.394 29.045-60.394 63.087.001 14.275 4.852 28.265 13.66 39.392zm57.319 94.561c0 2.375-1.097 4.035-2.668 4.035h-10.814c-1.571 0-2.668-1.659-2.668-4.035v-1.737h16.15zm11.592-7.926c0 1.251-1.017 2.268-2.268 2.268h-33.329c-2.061 0-3.738-1.677-3.738-3.739v-7.637h39.334v9.108zm0-13.029h-39.334v-11.254h.045 39.244.045zm-22.021-172.168c15.684-.628 30.751 5.033 42.419 15.915 11.698 10.907 18.406 25.597 18.887 41.363.43 14.065-3.954 27.811-12.344 38.703-2.651 3.44-5.699 7.476-8.343 11.821-.44.724-.901 1.492-1.373 2.292-4.736 8.014-7.805 17.095-9.123 26.992-1.928 14.484-7.363 19.008-8.68 19.906h-38.182c-1.268-.854-6.265-4.985-8.395-18.018-1.977-12.098-5.926-23.109-11.736-32.727-.263-.434-.513-.844-.749-1.223-2.083-3.351-4.11-6.261-6.195-8.896-8.262-10.437-12.812-23.563-12.812-36.961-.001-31.927 24.872-57.916 56.626-59.167z"/><path d="m230.377 74.154-17.155 8.2c-.977.467-1.39 1.638-.924 2.614.337.705 1.039 1.116 1.77 1.116.283 0 .571-.061.844-.191l17.155-8.2c.977-.467 1.39-1.638.924-2.614-.467-.979-1.637-1.392-2.614-.925z"/><path d="m220.889 118.062c0 1.082.878 1.961 1.961 1.961h11.457c1.083 0 1.961-.878 1.961-1.961 0-1.082-.878-1.961-1.961-1.961h-11.457c-1.084 0-1.961.879-1.961 1.961z"/><path d="m190.502 60.828c.629 0 1.246-.301 1.625-.86l6.446-9.51c.608-.896.373-2.115-.523-2.723-.897-.608-2.116-.373-2.723.522l-6.446 9.51c-.608.896-.373 2.115.523 2.723.336.228.719.338 1.098.338z"/><path d="m86.778 82.354-17.155-8.2c-.977-.467-2.148-.054-2.615.924-.467.976-.054 2.147.924 2.614l17.155 8.2c.273.13.561.191.844.191.731 0 1.433-.411 1.77-1.116.467-.976.054-2.146-.923-2.613z"/><path d="m63.733 118.062c0 1.082.878 1.961 1.961 1.961h11.457c1.083 0 1.961-.878 1.961-1.961 0-1.082-.878-1.961-1.961-1.961h-11.458c-1.083 0-1.96.879-1.96 1.961z"/><path d="m109.498 60.828c.378 0 .761-.11 1.098-.338.896-.606 1.13-1.827.523-2.723l-6.445-9.51c-.608-.895-1.827-1.13-2.723-.522-.896.606-1.13 1.827-.523 2.723l6.445 9.51c.379.558.996.86 1.625.86z"/><path d="m152.922 48.963v-10.065c0-1.082-.878-1.961-1.961-1.961s-1.961.878-1.961 1.961v10.065c0 1.082.878 1.961 1.961 1.961 1.084 0 1.961-.879 1.961-1.961z"/><path d="m108.302 132.633 35.782 29.264c.554.509 1.266.788 2 .788.098 0 .196-.005.294-.015.849-.086 1.618-.537 2.128-1.246l45.649-56.25c.795-.984.696-2.43-.226-3.296l-12.658-11.884c-.493-.462-1.165-.697-1.836-.651-.675.049-1.303.38-1.724.91l-33.968 42.696-22.012-18.16c-.513-.426-1.186-.623-1.848-.54-.662.082-1.267.439-1.657.973l-10.345 14.098c-.762 1.039-.577 2.494.421 3.313zm12.15-13.817 21.428 17.677c.627.58 1.461.855 2.297.777.853-.087 1.626-.542 2.136-1.256l33.457-42.052 10.461 9.821-44.286 54.571-34.064-27.86z"/></g></svg>