<svg id="Layer_1" enable-background="new 0 0 80 80" height="80" viewBox="0 0 80 80" width="80" xmlns="http://www.w3.org/2000/svg"><path d="m5.505 28h4.5c4.241 0 7.915 2.979 11.466 7.108.3-.406.602-.815.895-1.218 1.445-1.977 2.979-4.051 4.615-6.099-4.601-4.963-9.993-8.791-16.976-8.791h-4.5c-2.489 0-4.5 2.01-4.5 4.5s2.011 4.5 4.5 4.5zm58.49 24h-11.99c-5.93 0-10.69-5.52-15.51-12 4.819-6.48 9.58-12 15.51-12h11.99v10.5l15-15-15-15v10.5h-11.99c-9.18 0-15.62 6.43-21.09 13.47-1.28 1.65-2.5 3.32-3.7 4.96-.63.87-1.26 1.73-1.88 2.57-4.81 6.46-9.54 12-15.33 12h-4.5c-2.489 0-4.5 2.01-4.5 4.5s2.011 4.5 4.5 4.5h4.5c9.07 0 15.46-6.45 20.91-13.47 5.47 7.04 11.91 13.47 21.09 13.47h11.99v10.5l15-15-15-15z" fill="#333f4f"/></svg>