<svg id="Layer_1" enable-background="new 0 0 512 512" height="512" viewBox="0 0 512 512" width="512" xmlns="http://www.w3.org/2000/svg"><path d="m469.333 76.8v273.067c0 42.634-34.62 76.8-76.8 76.8h-85.333l-51.2 85.333-51.2-85.333h-85.333c-42.411 0-76.8-34.389-76.8-76.8v-273.067c0-42.218 34.21-76.8 76.8-76.8h273.067c42.41 0 76.799 34.389 76.799 76.8z" fill="#4379ff"/><path d="m469.333 76.8v273.067c0 12.267-2.869 23.851-7.989 34.133h-341.877c-18.848 0-34.133-15.285-34.133-34.133v-341.878c10.282-5.12 21.866-7.989 34.133-7.989h273.067c42.41 0 76.799 34.389 76.799 76.8z" fill="#6994ff"/><path d="m280.53 341.33c0 13.53-11 24.54-24.53 24.54s-24.53-11.01-24.53-24.54c0-13.52 11-24.53 24.53-24.53s24.53 11.01 24.53 24.53z" fill="#ffec8f"/><path d="m256 297.6c-8.836 0-16-7.164-16-16 0-36.841 17.766-72.294 47.524-94.838 13.746-10.415 21.479-26.932 20.686-44.184-1.227-26.654-23.066-48.494-49.721-49.72-30.204-1.376-54.755 22.649-54.755 52.209 0 8.836-7.164 16-16 16s-16-7.164-16-16c0-47.693 39.679-86.419 88.226-84.175 43.205 1.987 78.225 36.948 80.216 80.215 1.278 27.78-11.181 54.382-33.328 71.162-21.821 16.53-34.848 42.448-34.848 69.331 0 8.837-7.164 16-16 16z" fill="#ffec8f"/><g fill="#80aaff"><path d="m341.333 59.733c0 9.419 7.634 17.067 17.067 17.067h17.067c9.426 0 17.067 7.641 17.067 17.067v25.6c0 9.426 7.641 17.067 17.067 17.067 9.419 0 17.067-7.634 17.067-17.067v-25.6c0-28.277-22.923-51.2-51.2-51.2h-17.068c-9.426 0-17.067 7.641-17.067 17.066z"/><circle cx="409.6" cy="170.667" r="17.067"/></g></svg>