<svg clip-rule="evenodd" fill-rule="evenodd" height="64" image-rendering="optimizeQuality" shape-rendering="geometricPrecision" text-rendering="geometricPrecision" viewBox="0 0 2444 2444" width="64" xmlns="http://www.w3.org/2000/svg" xmlns:xodm="http://www.corel.com/coreldraw/odm/2003"><g id="Layer_x0020_1"><g id="_2457076821312"><g><path d="m413 1302c0-611 495-1105 1105-1105 48 0 94 4 140 9-134-57-281-89-436-89-610 0-1105 495-1105 1105 0 563 421 1027 966 1095-394-169-670-560-670-1015z" fill="#eaeaea" fill-rule="nonzero"/><g fill="none" stroke-linecap="round" stroke-miterlimit="10" stroke-width="76"><path d="m2327 1222c0 610-494 1105-1105 1105-610 0-1105-495-1105-1105s495-1105 1105-1105c611 0 1105 495 1105 1105z" stroke="#2c426b" stroke-linejoin="round"/><path d="m673 1229 333 333 877-877" stroke="#0091fc"/></g></g><path d="m0 0h2444v2444h-2444z" fill="none"/></g></g></svg>